<?xml version="1.0" encoding="UTF-8" standalone="no"?>
<!-- Created with Inkscape (http://www.inkscape.org/) -->

<svg
   width="65.631569mm"
   height="81.311424mm"
   viewBox="0 0 65.631569 81.311419"
   version="1.1"
   id="svg1"
   xml:space="preserve"
   inkscape:version="1.4 (e7c3feb100, 2024-10-09)"
   sodipodi:docname="båt.svg"
   inkscape:export-filename="FINALLLLLLLLLlogga2025.svg"
   inkscape:export-xdpi="96"
   inkscape:export-ydpi="96"
   xmlns:inkscape="http://www.inkscape.org/namespaces/inkscape"
   xmlns:sodipodi="http://sodipodi.sourceforge.net/DTD/sodipodi-0.dtd"
   xmlns="http://www.w3.org/2000/svg"
   xmlns:svg="http://www.w3.org/2000/svg"><sodipodi:namedview
     id="namedview1"
     pagecolor="#333333"
     bordercolor="#000000"
     borderopacity="0.25"
     inkscape:showpageshadow="true"
     inkscape:pageopacity="0.0"
     inkscape:pagecheckerboard="true"
     inkscape:deskcolor="#d1d1d1"
     inkscape:document-units="mm"
     showguides="false"
     inkscape:zoom="0.59884117"
     inkscape:cx="270.52248"
     inkscape:cy="408.28856"
     inkscape:window-width="1556"
     inkscape:window-height="924"
     inkscape:window-x="0"
     inkscape:window-y="0"
     inkscape:window-maximized="1"
     inkscape:current-layer="svg1"
     showgrid="false"
     showborder="true"
     shape-rendering="auto"
     borderlayer="true"><sodipodi:guide
       position="159.58926,-12.45325"
       orientation="-1,0"
       id="guide33"
       inkscape:locked="false"
       inkscape:label=""
       inkscape:color="rgb(0,134,229)" /></sodipodi:namedview><defs
     id="defs1"><clipPath
       clipPathUnits="userSpaceOnUse"
       id="clipPath22"><g
         inkscape:label="Clip"
         id="use22"><path
           id="path22"
           style="fill:#e2e9f2;stroke-width:0.217487"
           d="m 136.47319,83.269732 a 4.7794175,4.7794175 0 0 0 -4.77761,4.77986 4.7794175,4.7794175 0 0 0 4.77761,4.779861 4.7794175,4.7794175 0 0 0 4.77987,-4.779861 4.7794175,4.7794175 0 0 0 -4.77987,-4.77986 z" /></g></clipPath><mask
       maskUnits="userSpaceOnUse"
       id="mask23"><ellipse
         style="fill:#e2e9f2;fill-opacity:1;stroke:none;stroke-width:0.264999;stroke-opacity:1"
         id="ellipse23"
         cx="137.39099"
         cy="87.985931"
         rx="4.0195012"
         ry="3.9878516" /></mask><clipPath
       clipPathUnits="userSpaceOnUse"
       id="clipPath4950-4-3"><path
         inkscape:connector-curvature="0"
         id="path4952-3-2"
         d="m -325.3865,119.29363 30.59903,1.21138 c 0,0 -0.74489,8.61501 -1.59408,12.8452 -0.75152,3.74372 -3.08587,11.03175 -3.08587,11.03175 l -25.71482,3.15064 z"
         style="fill:none;stroke:#000000;stroke-width:0.264583px;stroke-linecap:butt;stroke-linejoin:miter;stroke-opacity:1"
         sodipodi:nodetypes="ccaccc" /></clipPath></defs><path
     id="path4956-6-6-8-0-4"
     style="fill:#c8d6e6;fill-opacity:1;stroke:none;stroke-width:0.0636138px;stroke-linecap:butt;stroke-linejoin:miter;stroke-opacity:1"
     d="m 16.377812,52.11531 c -2.808379,-0.0544 -4.447555,3.851135 -2.969845,2.941935 0.245231,-0.15089 0.48102,-0.26089 0.706934,-0.339 0.700983,-0.64699 1.709499,-1.16409 2.896981,-0.98237 3.066188,0.46922 3.765034,3.37535 5.987748,5.21829 0.68836,0.57075 1.52546,1.02703 2.39469,1.39113 3.18625,0.2177 5.33197,0.10128 5.33197,0.10128 0,0 -5.17083,-0.47042 -7.938017,-2.85977 -2.222713,-1.91919 -2.92156,-4.94514 -5.987748,-5.433775 -0.14354,-0.0229 -0.284596,-0.035 -0.422713,-0.0377 z M 5.27358,54.589575 c -0.196774,-0.002 -0.387722,0.006 -0.572575,0.0253 C 3.116291,54.777265 0,56.562035 0,56.562035 c 0,0 1.169917,0.0397 2.453597,0.31575 0.860649,-0.37214 1.794048,-0.71232 2.458765,-0.77773 3.943531,-0.38797 10.808545,4.00865 11.681457,2.35231 0.316607,-0.60075 0.254404,-1.24847 -0.08061,-1.71824 -0.03274,0.11084 -0.07553,0.22112 -0.130741,0.33021 -0.831995,1.64401 -7.107804,-2.43828 -11.108883,-2.47478 z" /><path
     style="fill:#c8d6e6;fill-opacity:1;fill-rule:evenodd;stroke:none;stroke-width:0.303075;stroke-dasharray:none;stroke-opacity:1"
     d="M 41.970484,9.756181 C 42.089204,5.73933 38.000934,5.256887 38.000934,5.256887 29.40697,4.818574 31.51523,0 31.51523,0 c 0,0 0.93148,4.631487 7.508254,2.613535 0,0 1.99173,-0.511059 3.16979,1.240304 z"
     id="path1977-2"
     sodipodi:nodetypes="cccccc" /><path
     style="fill:#c8d6e6;fill-opacity:1;fill-rule:evenodd;stroke:none;stroke-width:0.305182;stroke-dasharray:none;stroke-opacity:1"
     d="m 26.61297,28.24029 24.698808,-2.02197 c 0,0 -1.24072,13.22891 -1.93706,21.64901 L 25.88153,50.80696 c 0,0 -10.711857,-10.74041 0.73144,-22.56667 z"
     id="path1971-2"
     sodipodi:nodetypes="ccccc"
     inkscape:label="path1971-2" /><path
     style="fill:#c8d6e6;fill-opacity:1;fill-rule:evenodd;stroke:none;stroke-width:0.303075;stroke-dasharray:none;stroke-opacity:1"
     d="m 50.429338,10.865535 c -4.20121,5.49293 -0.94974,11.059153 -0.94974,11.059153 L 30.73486,24.204209 C 26.23296,16.187076 31.94503,12.94545 31.94503,12.94545 Z"
     id="path1969-1" /><path
     style="fill:#c8d6e6;fill-opacity:1;fill-rule:evenodd;stroke:none;stroke-width:0.381721;stroke-dasharray:none;stroke-opacity:1"
     d="m 50.443558,25.244 5.40241,0.55887 7.63787,24.31079 -15.46203,2.608065 z"
     id="path10694"
     sodipodi:nodetypes="ccccc"
     inkscape:label="path10694" /><path
     id="path2275-2"
     style="fill:#784941;fill-opacity:1;fill-rule:evenodd;stroke:none;stroke-width:0.319481;stroke-dasharray:none;stroke-opacity:1"
     d="m 50.081798,22.29156 1.056,-0.06413 -3.20145,37.978755 -1.18428,-0.0736 z m -8.400024,-20.183988 1.22431,0.02603 -4.39883,57.278043 -1.583024,-0.18685 z"
     inkscape:label="path2275-2" /><path
     id="path2143-3"
     style="fill:#784941;fill-opacity:1;fill-rule:evenodd;stroke:none;stroke-width:0.350393;stroke-dasharray:none;stroke-opacity:1"
     d="m 58.820708,63.982795 c 0,0 -2.5277,9.883302 -3.54552,10.849982 0,0 -0.29071,0.47092 -1.10381,1.00511 l 7.69359,3.7822 c 0.61512,-2.34069 0.95375,-5.99909 -2.07791,-7.92717 0,0 -0.3508,-0.10618 -0.86868,-0.97771 -0.5154,-0.86733 -0.45756,-2.90822 -0.0977,-6.732412 z m -6.28024,12.649362 c -0.49016,0.17485 -1.05917,0.33269 -1.71824,0.45527 l 1.2206,0.55655 z M 11.70988,35.65016 10.135299,36.40929 c 0,0 7.375477,10.72725 7.569047,17.096105 0,0 0.434368,12.338102 3.566707,15.543242 v 5.2e-4 c 6.374677,5.47801 26.174125,7.32927 26.174125,7.32927 2.9516,0.21699 4.66306,-0.18535 5.63634,-0.64182 0.97335,-0.45653 1.44333,-1.11156 1.44333,-1.11156 1.531,-1.7879 3.7207,-10.470172 3.7207,-10.470172 0.28897,-1.17418 1.15085,-0.90341 1.04645,0.15142 -0.10934,1.090292 -0.24494,2.793872 -0.12661,4.988842 0.0698,1.296 0.43408,1.36322 0.43408,1.36322 3.95709,-2.63856 5.0984,-13.767632 5.0984,-13.767632 -6.24183,-0.12751 -11.56744,-0.4736 -16.10651,-0.94051 l -0.11421,1.51101 c 7.85822,0.5521 13.99657,0.11059 13.99657,0.11059 l -15.26471,4.29845 C 27.13957,61.863265 19.541947,48.16432 19.393648,47.7533 23.54822,52.03137 30.16024,54.509635 36.9688,55.927995 l 0.12144,-1.67949 0.25218,0.0579 -0.14572,1.66966 c 0.515824,0.10561 1.032454,0.20536 1.549264,0.29921 l 0.12557,-1.68258 C 28.82995,52.748435 25.35142,50.49217 25.35142,50.49217 19.241438,49.63608 11.70988,35.65018 11.70988,35.65018 Z m 27.398844,18.985915 -0.14882,1.67742 c 2.64509,0.47233 5.285654,0.79533 7.792294,1.01338 l 0.0966,-1.56322 c -2.92492,-0.33542 -5.494294,-0.72076 -7.740104,-1.12758 z m 8.007274,1.15704 -0.12454,1.55391 c 0.40744,0.0345 0.80717,0.0639 1.20664,0.093 l 0.12868,-1.51464 0.14572,0.0124 c -0.45726,-0.0474 -0.91531,-0.0949 -1.3565,-0.14469 z" /><path
     id="path4956-6-6-8"
     style="fill:#c8d6e6;fill-opacity:1;stroke:none;stroke-width:0.112277px;stroke-linecap:butt;stroke-linejoin:miter;stroke-opacity:1"
     d="m 28.198196,64.508314 c -4.946812,0.089 -10.749097,1.368963 -11.329541,2.021063 -0.568977,-0.038 -1.588017,-0.10904 -1.588017,-0.10904 0,0 0.352229,1.01244 2.087211,2.34922 0.04188,0.0113 0.08375,0.0222 0.125574,0.0336 0.182108,0.0466 0.362682,0.0981 0.529683,0.18551 0.05163,0.0314 0.227475,0.15403 0.218075,0.21963 -0.0074,0.052 -0.01776,0.1042 -0.03152,0.15554 2.287094,1.50094 6.295749,3.25736 13.325802,4.46588 7.273236,1.25038 13.950568,5.08496 13.950568,5.08496 0,0 6.43508,-1.50551 7.73803,-1.64693 2.10418,-0.22845 3.57351,1.9573 2.20813,1.30587 -2.59264,-1.23688 -1.76846,2.90537 1.21337,1.9575 3.41211,-1.0846 8.98601,0.78032 8.98601,0.78032 0,0 -4.3249,-3.47707 -6.83266,-4.5899 -8.0598,-3.57644 -24.657452,-3.35261 -25.670781,-6.38463 -0.905699,-2.70974 0.910336,-2.56579 4.791956,0.88677 2.692247,2.39481 0.775483,-5.03095 -5.545915,-6.398576 -1.186809,-0.25676 -2.639814,-0.344407 -4.175972,-0.316777 z" /></svg>
