<?xml version="1.0" encoding="UTF-8" standalone="no"?>
<!-- Created with Inkscape (http://www.inkscape.org/) -->

<svg
   width="55.496273mm"
   height="81.31144mm"
   viewBox="0 0 55.496273 81.311434"
   version="1.1"
   id="svg1"
   xml:space="preserve"
   inkscape:version="1.4 (e7c3feb100, 2024-10-09)"
   sodipodi:docname="boat.svg"
   inkscape:export-filename="FINALLLLLLLLLlogga2025.svg"
   inkscape:export-xdpi="96"
   inkscape:export-ydpi="96"
   xmlns:inkscape="http://www.inkscape.org/namespaces/inkscape"
   xmlns:sodipodi="http://sodipodi.sourceforge.net/DTD/sodipodi-0.dtd"
   xmlns="http://www.w3.org/2000/svg"
   xmlns:svg="http://www.w3.org/2000/svg"><sodipodi:namedview
     id="namedview1"
     pagecolor="#333333"
     bordercolor="#000000"
     borderopacity="0.25"
     inkscape:showpageshadow="true"
     inkscape:pageopacity="0.0"
     inkscape:pagecheckerboard="true"
     inkscape:deskcolor="#d1d1d1"
     inkscape:document-units="mm"
     showguides="true"
     inkscape:zoom="2.3374139"
     inkscape:cx="174.7658"
     inkscape:cy="171.77104"
     inkscape:window-width="1556"
     inkscape:window-height="924"
     inkscape:window-x="0"
     inkscape:window-y="0"
     inkscape:window-maximized="1"
     inkscape:current-layer="svg1"
     showgrid="false"
     showborder="true"
     shape-rendering="auto"
     borderlayer="true"><sodipodi:guide
       position="149.45396,-12.45325"
       orientation="-1,0"
       id="guide33"
       inkscape:locked="false"
       inkscape:label=""
       inkscape:color="rgb(0,134,229)" /></sodipodi:namedview><defs
     id="defs1"><clipPath
       clipPathUnits="userSpaceOnUse"
       id="clipPath22"><g
         inkscape:label="Clip"
         id="use22"><path
           id="path22"
           style="fill:#e2e9f2;stroke-width:0.217487"
           d="m 136.47319,83.269732 a 4.7794175,4.7794175 0 0 0 -4.77761,4.77986 4.7794175,4.7794175 0 0 0 4.77761,4.779861 4.7794175,4.7794175 0 0 0 4.77987,-4.779861 4.7794175,4.7794175 0 0 0 -4.77987,-4.77986 z" /></g></clipPath><mask
       maskUnits="userSpaceOnUse"
       id="mask23"><ellipse
         style="fill:#e2e9f2;fill-opacity:1;stroke:none;stroke-width:0.264999;stroke-opacity:1"
         id="ellipse23"
         cx="137.39099"
         cy="87.985931"
         rx="4.0195012"
         ry="3.9878516" /></mask><clipPath
       clipPathUnits="userSpaceOnUse"
       id="clipPath4950-4-3"><path
         inkscape:connector-curvature="0"
         id="path4952-3-2"
         d="m -325.3865,119.29363 30.59903,1.21138 c 0,0 -0.74489,8.61501 -1.59408,12.8452 -0.75152,3.74372 -3.08587,11.03175 -3.08587,11.03175 l -25.71482,3.15064 z"
         style="fill:none;stroke:#000000;stroke-width:0.264583px;stroke-linecap:butt;stroke-linejoin:miter;stroke-opacity:1"
         sodipodi:nodetypes="ccaccc" /></clipPath></defs><path
     style="fill:#c8d6e6;fill-opacity:1;fill-rule:evenodd;stroke:none;stroke-width:0.303075;stroke-dasharray:none;stroke-opacity:1"
     d="M 31.835185,9.756181 C 31.953905,5.73933 27.865635,5.256887 27.865635,5.256887 19.271671,4.818574 21.379931,0 21.379931,0 c 0,0 0.93148,4.631487 7.508254,2.613535 0,0 1.99173,-0.511059 3.16979,1.240304 z"
     id="path1977-2"
     sodipodi:nodetypes="cccccc" /><path
     style="fill:#c8d6e6;fill-opacity:1;fill-rule:evenodd;stroke:none;stroke-width:0.305182;stroke-dasharray:none;stroke-opacity:1"
     d="m 16.477671,28.24029 24.698808,-2.02197 c 0,0 -1.24072,13.22891 -1.93706,21.64901 l -23.493188,2.93963 c 0,0 -10.711857,-10.74041 0.73144,-22.56667 z"
     id="path1971-2"
     sodipodi:nodetypes="ccccc"
     inkscape:label="path1971-2" /><path
     style="fill:#c8d6e6;fill-opacity:1;fill-rule:evenodd;stroke:none;stroke-width:0.303075;stroke-dasharray:none;stroke-opacity:1"
     d="m 40.294039,10.865535 c -4.20121,5.49293 -0.94974,11.059153 -0.94974,11.059153 l -18.744738,2.279521 c -4.5019,-8.017133 1.21017,-11.258759 1.21017,-11.258759 z"
     id="path1969-1"
     inkscape:label="path1969-1" /><path
     style="fill:#c8d6e6;fill-opacity:1;fill-rule:evenodd;stroke:none;stroke-width:0.381721;stroke-dasharray:none;stroke-opacity:1"
     d="m 40.308259,25.244 5.40241,0.55887 7.63787,24.31079 -15.46203,2.608065 z"
     id="path10694"
     sodipodi:nodetypes="ccccc"
     inkscape:label="path10694" /><path
     id="path2275-2"
     style="fill:#784941;fill-opacity:1;fill-rule:evenodd;stroke:none;stroke-width:0.319481;stroke-dasharray:none;stroke-opacity:1"
     d="m 39.946499,22.29156 1.056,-0.06413 -3.20145,37.978755 -1.18428,-0.0736 z m -8.400024,-20.183988 1.22431,0.02603 -4.39883,57.278043 -1.583024,-0.18685 z"
     inkscape:label="path2275-2" /><path
     id="path2143-3"
     style="fill:#784941;fill-opacity:1;fill-rule:evenodd;stroke:none;stroke-width:0.350393;stroke-dasharray:none;stroke-opacity:1"
     d="m 48.685409,63.982795 c 0,0 -2.5277,9.883302 -3.54552,10.849982 0,0 -0.29071,0.47092 -1.10381,1.00511 l 7.69359,3.7822 c 0.61512,-2.34069 0.95375,-5.99909 -2.07791,-7.92717 0,0 -0.3508,-0.10618 -0.86868,-0.97771 -0.5154,-0.86733 -0.45756,-2.90822 -0.0977,-6.732412 z m -6.28024,12.649362 c -0.49016,0.17485 -1.05917,0.33269 -1.71824,0.45527 l 1.2206,0.55655 z M 1.574581,35.65016 0,36.40929 c 0,0 7.375477,10.72725 7.569047,17.096105 0,0 0.434368,12.338102 3.566707,15.543242 v 5.2e-4 c 6.374677,5.47801 26.174125,7.32927 26.174125,7.32927 2.9516,0.21699 4.66306,-0.18535 5.63634,-0.64182 0.97335,-0.45653 1.44333,-1.11156 1.44333,-1.11156 1.531,-1.7879 3.7207,-10.470172 3.7207,-10.470172 0.28897,-1.17418 1.15085,-0.90341 1.04645,0.15142 -0.10934,1.090292 -0.24494,2.793872 -0.12661,4.988842 0.0698,1.296 0.43408,1.36322 0.43408,1.36322 3.95709,-2.63856 5.0984,-13.767632 5.0984,-13.767632 -6.24183,-0.12751 -11.56744,-0.4736 -16.10651,-0.94051 l -0.11421,1.51101 c 7.85822,0.5521 13.99657,0.11059 13.99657,0.11059 l -15.26471,4.29845 C 17.004271,61.863265 9.406648,48.16432 9.258349,47.7533 c 4.154572,4.27807 10.766592,6.756335 17.575152,8.174695 l 0.12144,-1.67949 0.25218,0.0579 -0.14572,1.66966 c 0.515824,0.10561 1.032454,0.20536 1.549264,0.29921 l 0.12557,-1.68258 C 18.694651,52.748435 15.216121,50.49217 15.216121,50.49217 9.106139,49.63608 1.574581,35.65018 1.574581,35.65018 Z m 27.398844,18.985915 -0.14882,1.67742 c 2.64509,0.47233 5.285654,0.79533 7.792294,1.01338 l 0.0966,-1.56322 c -2.92492,-0.33542 -5.494294,-0.72076 -7.740104,-1.12758 z m 8.007274,1.15704 -0.12454,1.55391 c 0.40744,0.0345 0.80717,0.0639 1.20664,0.093 l 0.12868,-1.51464 0.14572,0.0124 c -0.45726,-0.0474 -0.91531,-0.0949 -1.3565,-0.14469 z" /><path
     id="path10"
     style="fill:#34201c;stroke-width:0.88556;stroke-linejoin:round"
     d="M 9.2583496 47.753158 C 9.276887 47.804535 9.4116563 48.063731 9.6727946 48.477661 C 9.8033637 48.684626 9.9657223 48.930007 10.16062 49.207849 C 10.550447 49.763607 11.071147 50.447905 11.733134 51.208244 C 12.064047 51.58832 12.43021 51.987436 12.832808 52.398869 C 13.235407 52.810301 13.674337 53.233776 14.151074 53.663391 C 15.581286 54.952236 17.350751 56.293275 19.49235 57.508634 C 20.454268 58.054524 21.497975 58.57159 22.61309 59.050659 C 22.739312 59.104886 22.859516 59.162366 22.987744 59.215507 C 26.77101 60.783454 31.428955 61.868156 37.073706 61.870125 L 52.338407 57.57168 C 52.338407 57.57168 51.83833 57.603038 51.040812 57.638859 C 50.431618 57.665464 49.634142 57.693361 48.654395 57.71224 C 46.221961 57.762264 42.814314 57.748536 38.861711 57.490548 C 38.684853 57.479004 38.520534 57.473646 38.341846 57.461092 L 38.456051 55.951624 L 38.287585 55.933537 L 38.191467 55.925269 L 38.062793 57.439905 C 38.053387 57.43922 38.043778 57.438523 38.034371 57.437838 L 37.800793 60.206144 L 36.616886 60.132764 L 36.861833 57.347404 C 36.859912 57.347241 36.85807 57.34705 36.856148 57.346887 L 36.980688 55.793494 L 36.713521 55.764555 L 36.616886 57.326733 C 34.110246 57.108683 31.469687 56.785689 28.824597 56.313359 L 28.973425 54.635942 C 28.986759 54.638357 29.002961 54.640763 29.016317 54.643176 L 28.741915 54.590983 L 28.371912 59.411877 L 26.789062 59.224809 L 27.198857 54.304179 L 26.954944 54.248368 L 26.833504 55.927852 C 26.720405 55.904292 26.609037 55.874487 26.496057 55.850338 L 26.49554 55.853955 C 25.86551 55.719291 25.238744 55.571934 24.614518 55.418323 C 24.451551 55.378208 24.288592 55.339893 24.126176 55.298433 C 23.437364 55.122668 22.755174 54.932444 22.079272 54.731543 C 21.907547 54.680474 21.734753 54.631856 21.564058 54.579097 C 21.548504 54.574293 21.533095 54.569447 21.51755 54.564628 C 21.132217 54.445109 20.749701 54.321445 20.370333 54.193075 C 20.344186 54.184232 20.318417 54.175088 20.292301 54.166203 C 19.927558 54.042039 19.565416 53.914388 19.207096 53.78173 C 19.145242 53.758844 19.084777 53.734077 19.023128 53.710933 C 18.703218 53.590762 18.384748 53.468676 18.070732 53.341447 C 17.968275 53.29996 17.868145 53.256058 17.766357 53.213806 C 17.489917 53.098988 17.213858 52.983993 16.942635 52.86344 C 16.840485 52.818062 16.741181 52.769601 16.639811 52.723397 C 16.368592 52.599706 16.09797 52.475345 15.832625 52.345642 C 15.750414 52.305478 15.670851 52.262885 15.589229 52.222135 C 15.313895 52.084601 15.039496 51.946308 14.771191 51.802006 C 14.671884 51.748622 14.576486 51.691485 14.478186 51.637158 C 14.231768 51.500907 13.985229 51.364971 13.745414 51.222713 C 13.62977 51.154143 13.518909 51.081346 13.404867 51.011357 C 13.187423 50.877854 12.968754 50.745464 12.757361 50.60673 C 12.617444 50.514939 12.483691 50.41818 12.346533 50.32406 C 12.168358 50.201753 11.987618 50.081379 11.814266 49.95509 C 11.631353 49.821871 11.456223 49.682507 11.278898 49.544779 C 11.15798 49.450843 11.032812 49.360236 10.914579 49.264176 C 10.728353 49.1129 10.551315 48.954161 10.371977 48.797538 C 10.267782 48.706528 10.159063 48.619074 10.057267 48.526237 C 9.7819528 48.275184 9.5153834 48.017832 9.2583496 47.753158 z " /><path
     style="fill:#000000;fill-opacity:0.10773288;stroke:none;stroke-width:0.88556;stroke-linejoin:round"
     d="m 39.584921,25.90011 -1.928734,22.134491 -7.623082,0.918445 c 0,0 4.488175,-5.974634 5.969886,-9.368126 1.886826,-4.321307 3.58193,-13.68481 3.58193,-13.68481 z"
     id="path12"
     sodipodi:nodetypes="cccac" /><path
     id="path13"
     style="fill:#000000;fill-opacity:0.215229;stroke:none;stroke-width:0.88556;stroke-linejoin:round"
     d="M 54.409599 56.885933 L 51.916211 57.595451 C 52.028918 57.588381 52.338407 57.57168 52.338407 57.57168 L 37.073706 61.870125 C 37.014871 61.870105 36.959211 61.866763 36.90059 61.866508 L 36.696468 61.924386 C 36.696468 61.924386 37.267433 67.476985 38.112402 70.116134 C 38.709694 71.981697 40.325701 75.001147 41.031087 76.281649 C 41.863189 76.149678 42.49007 75.950395 42.946216 75.736462 C 43.919566 75.279932 44.389539 74.624902 44.389539 74.624902 C 45.920539 72.837002 48.110242 64.15474 48.110242 64.15474 C 48.399212 62.98056 49.261089 63.251322 49.156689 64.306152 C 49.047349 65.396444 48.911752 67.100025 49.030082 69.294995 C 49.099882 70.590995 49.464164 70.658219 49.464164 70.658219 C 53.421254 68.019659 54.562561 56.890584 54.562561 56.890584 C 54.509651 56.889503 54.462377 56.887046 54.409599 56.885933 z M 48.6854 63.982658 C 48.6854 63.982658 48.605054 64.286023 48.588249 64.351111 L 48.607886 64.923169 C 48.635776 64.599646 48.652134 64.336178 48.6854 63.982658 z M 48.809424 70.753821 L 48.838363 71.593046 C 48.838363 71.593046 49.01772 71.429323 49.179427 71.28092 C 49.069797 71.15008 48.947509 70.981426 48.809424 70.753821 z M 45.1559 74.810421 C 45.150843 74.815581 45.144865 74.827907 45.13988 74.832642 C 45.13988 74.832642 45.118401 74.858585 45.117143 74.860547 L 45.145048 74.845044 L 45.1559 74.810421 z M 41.395406 76.927604 C 41.394073 76.927935 41.392605 76.928307 41.391272 76.928638 L 41.391789 76.929671 L 41.395406 76.927604 z " /><path
     id="path14"
     style="fill:#000000;fill-opacity:0.392665;stroke:none;stroke-width:0.88556;stroke-linejoin:round"
     d="M 0.6604248 36.09082 L 0 36.409147 C 0 36.409147 7.375477 47.136406 7.569047 53.505261 C 7.569047 53.505261 8.0034154 65.843359 11.135754 69.048499 L 11.135754 69.049015 C 15.627703 72.909123 26.681668 74.942558 32.88068 75.822245 C 31.193243 74.686597 24.865695 70.38694 21.653459 67.551949 C 18.757795 64.996353 15.956721 62.262066 13.695288 59.131274 C 11.561897 56.177747 10.298248 52.683247 8.5131755 49.507056 C 6.0511412 45.126342 1.7084932 37.845934 0.6604248 36.09082 z " /><path
     style="fill:#000000;fill-opacity:0.129466;stroke:none;stroke-width:0.88556;stroke-linejoin:round"
     d="m 21.257901,-0.0208003 c 0,0 -0.296967,1.8660613 0.145602,2.6208372 0.739421,1.2610401 2.276812,1.8850629 3.702453,2.3504334 1.224483,0.3997069 3.806454,0.6656093 3.806454,0.6656093 l 2.184032,1.4560206 0.312004,-3.1200441 c 0,0 -1.867714,-0.2648633 -2.808041,-0.2704039 C 27.528878,3.6753385 26.448379,4.1597825 25.39716,3.9520561 24.265506,3.7284353 23.110822,3.2098125 22.318716,2.3712336 21.719773,1.7371502 21.257901,-0.0208003 21.257901,-0.0208003 Z"
     id="path15"
     sodipodi:nodetypes="cascccaaac" /><path
     id="path4956-6-6-8"
     style="fill:#c8d6e6;fill-opacity:1;stroke:none;stroke-width:0.112277px;stroke-linecap:butt;stroke-linejoin:miter;stroke-opacity:1"
     d="m 18.062897,64.508314 c -4.946812,0.089 -10.62289,1.508428 -11.329541,2.021063 -0.348687,0.252953 -0.252022,0.891048 -0.252022,0.891048 1.132875,1.541337 1.291983,1.704982 1.593028,1.943412 2.287094,1.50094 6.295749,3.25736 13.325802,4.46588 7.273236,1.25038 13.950568,5.08496 13.950568,5.08496 0,0 6.43508,-1.50551 7.73803,-1.64693 2.10418,-0.22845 3.57351,1.9573 2.20813,1.30587 -2.59264,-1.23688 -1.76846,2.90537 1.21337,1.9575 3.41211,-1.0846 8.98601,0.78032 8.98601,0.78032 0,0 -4.3249,-3.47707 -6.83266,-4.5899 -8.0598,-3.57644 -24.657452,-3.35261 -25.670781,-6.38463 -0.905699,-2.70974 0.910336,-2.56579 4.791956,0.88677 2.692247,2.39481 0.775483,-5.03095 -5.545915,-6.398576 -1.186809,-0.25676 -2.639814,-0.344407 -4.175972,-0.316777 z"
     sodipodi:nodetypes="sscccccccccccsss" /></svg>
