<?xml version="1.0" encoding="UTF-8" standalone="no"?>
<!DOCTYPE svg PUBLIC "-//W3C//DTD SVG 1.1//EN" "http://www.w3.org/Graphics/SVG/1.1/DTD/svg11.dtd">
<svg width="100%" height="100%" viewBox="0 0 597 598" version="1.1" xmlns="http://www.w3.org/2000/svg" xmlns:xlink="http://www.w3.org/1999/xlink" xml:space="preserve" xmlns:serif="http://www.serif.com/" style="fill-rule:evenodd;clip-rule:evenodd;stroke-linejoin:round;stroke-miterlimit:2;">
    <g id="Artboard1" transform="matrix(0.846375,0,0,0.884428,0,0)">
        <rect x="0" y="0" width="704.736" height="675.902" style="fill:none;"/>
        <g transform="matrix(1.181509,0,0,1.130674,-111.724138,-88.322862)">
            <g transform="matrix(0.981701,0,0,0.981701,-43.545991,-136.22528)">
                <circle cx="433.608" cy="505.967" r="257.095"/>
            </g>
            <path d="M394.371,108.093C528.005,114.564 634.518,225.108 634.518,360.334C634.518,499.714 521.358,612.874 381.978,612.874C338.427,612.874 297.437,601.826 261.658,582.383C265.764,582.581 269.896,582.682 274.051,582.682C413.432,582.682 526.591,469.523 526.591,330.142C526.591,234.312 473.099,150.877 394.371,108.093ZM330.296,601.745C338.259,603.968 347.672,604.801 351.302,603.604C354.931,602.407 351.413,599.63 343.449,597.406C343.796,598.504 343.031,599.741 340.48,600.583C337.928,601.424 333.931,601.758 330.296,601.745ZM567.011,325.927C574.659,328.062 580.208,321.222 579.395,310.661C578.583,300.1 571.715,289.792 564.068,287.657C569.605,291.043 574.593,300.192 575.311,309.52C576.028,318.848 572.26,325.552 567.011,325.927ZM615.85,420.429C622.049,422.16 628.693,404.33 630.677,380.638C632.66,356.945 629.237,336.305 623.037,334.574C626.8,340.449 628.7,359.004 626.976,379.605C625.251,400.205 620.401,416.875 615.85,420.429ZM543.492,233.319C556.614,236.052 560.083,224.572 551.235,207.698C542.386,190.825 524.549,174.907 511.427,172.174C521.357,177.967 534.067,191.535 541.477,205.666C548.888,219.797 549.035,230.748 543.492,233.319ZM496.279,561.267C505.41,563.816 523.22,556.386 536.027,544.684C548.835,532.982 551.82,521.412 542.689,518.863C548.407,522.326 544.461,532.985 532.68,543.749C520.899,554.514 505.127,561.871 496.279,561.267ZM418.402,575.198C428.097,577.905 444.217,574.16 454.379,566.84C464.541,559.52 464.92,551.379 455.225,548.673C459.337,551.984 456.928,558.813 448.185,565.11C439.443,571.408 426.842,575.392 418.402,575.198ZM511.768,476.863C519.807,479.107 531.014,473.271 536.781,463.838C542.547,454.404 540.703,444.923 532.665,442.679C536.641,446.141 536.607,454.288 531.645,462.404C526.684,470.52 518.2,476.307 511.768,476.863Z" style="fill:rgb(255,192,0);"/>
            <path d="M248.926,610.37C252.875,600.91 255.214,595.359 255.945,593.715C256.676,592.072 257.175,591.306 257.442,591.417C257.899,591.609 258.913,592.883 260.482,595.24C268.15,606.592 272.545,613.017 273.666,614.516L274.491,615.599L282.919,614.078C286.013,613.533 290.77,612.652 297.19,611.435C301.053,610.764 303.138,610.492 303.443,610.619C303.71,610.73 301.177,617.175 295.843,629.953L287.818,649.178L275.746,644.139L280.045,633.84C282.911,626.974 284.286,623.517 284.172,623.469C283.943,623.374 280.361,623.961 273.426,625.232C271.67,625.574 270.564,625.65 270.106,625.459L269.992,625.411C264.722,617.971 262.068,614.243 262.029,614.227C261.915,614.179 260.425,617.588 257.559,624.454L253.26,634.753L240.902,629.594L248.926,610.37Z" style="fill:white;fill-rule:nonzero;"/>
            <path d="M341.589,635.377L343.31,625.734L324.327,622.347L322.607,631.991L341.589,635.377ZM304.478,653.822L311.786,612.867L355.854,620.729C356.114,621.154 356.552,621.757 357.168,622.538L350.133,661.968L337.255,659.67L340.282,642.702L320.69,639.206L317.662,656.174L304.478,653.822Z" style="fill:white;fill-rule:nonzero;"/>
            <path d="M366.038,642.087C365.731,631.882 365.582,625.911 365.592,624.174C365.601,622.437 365.751,621.564 366.04,621.555C366.412,621.544 372.031,624.828 382.898,631.406L399.201,641.336C399.172,639.021 399.089,635.56 398.95,630.954C398.811,626.347 398.727,622.886 398.699,620.571L411.775,620.177L412.402,641C412.818,654.799 412.902,661.702 412.654,661.71L409.37,659.762C407.474,658.578 404.082,656.499 399.196,653.524C394.309,650.55 389.823,647.831 385.738,645.37C381.653,642.909 379.589,641.679 379.548,641.68C379.465,641.682 379.527,645.092 379.732,651.909L380.042,662.196L366.656,662.6L366.038,642.087Z" style="fill:white;fill-rule:nonzero;"/>
            <path d="M429.105,659.447L419.659,618.931L432.701,615.891L440.458,649.16L467.992,642.741L468.217,643.707C468.358,644.311 467.834,645.707 466.646,647.893L464.911,651.099L429.105,659.447Z" style="fill:white;fill-rule:nonzero;"/>
            <path d="M505.176,608.64L501.098,599.733L483.567,607.762L487.645,616.668L505.176,608.64ZM485.18,644.938L467.858,607.113L508.557,588.475C509.013,588.675 509.717,588.921 510.668,589.213L527.345,625.628L515.451,631.075L508.274,615.404L490.179,623.691L497.356,639.362L485.18,644.938Z" style="fill:white;fill-rule:nonzero;"/>
            <path d="M529.192,600.175C523.114,591.973 519.582,587.156 518.599,585.724C517.615,584.292 517.239,583.49 517.472,583.318C517.77,583.097 524.259,582.584 536.936,581.78L555.99,580.625C554.645,578.741 552.6,575.947 549.856,572.244C547.112,568.542 545.068,565.748 543.723,563.864L554.233,556.075L566.637,572.812C574.856,583.903 578.867,589.523 578.667,589.671L574.859,589.946C572.626,590.058 568.655,590.287 562.945,590.635C557.234,590.982 552,591.312 547.24,591.623C542.481,591.935 540.085,592.103 540.051,592.128C539.985,592.177 541.982,594.941 546.043,600.421L552.171,608.689L541.411,616.663L529.192,600.175Z" style="fill:white;fill-rule:nonzero;"/>
            <path d="M584.768,536.374L582.286,535.999L574.192,545.146L594.484,563.1L602.701,553.813L602.327,552.738C601.327,549.314 600.623,546.898 600.215,545.488C599.072,541.166 598.424,538.936 598.269,538.799C597.959,538.525 596.105,538.126 592.705,537.602C591.61,537.405 590.109,537.168 588.204,536.889C586.298,536.61 585.153,536.438 584.768,536.374ZM591.135,578.019L559.978,550.451L582.944,524.495L590.31,525.714C591.906,525.967 594.191,526.333 597.163,526.81C600.135,527.287 601.739,527.548 601.976,527.592C604.874,528.059 606.493,528.443 606.834,528.744C607.144,529.018 607.677,530.318 608.434,532.643C609.098,534.887 609.477,536.049 609.57,536.132L611.116,541.308C611.673,543.236 612.431,545.81 613.389,549.031L614.173,551.794L602.721,564.924L591.135,578.019Z" style="fill:white;fill-rule:nonzero;"/>
            <path d="M614.153,518.621C605.265,513.597 600.081,510.631 598.6,509.723C597.119,508.815 596.45,508.234 596.593,507.983C596.776,507.659 602.496,504.554 613.752,498.667L630.692,489.867C628.697,488.692 625.694,486.971 621.682,484.703C617.67,482.435 614.666,480.714 612.672,479.539L619.109,468.15L637.244,478.402C649.262,485.195 655.21,488.7 655.088,488.916L651.721,490.716C649.726,491.725 646.19,493.548 641.114,496.187C636.038,498.825 631.389,501.253 627.167,503.472C622.945,505.691 620.824,506.819 620.804,506.855C620.763,506.927 623.712,508.641 629.649,511.997L638.608,517.062L632.018,528.72L614.153,518.621Z" style="fill:white;fill-rule:nonzero;"/>
            <path d="M660.219,476.28L621.405,461.135L626.16,448.948L664.974,464.092L660.219,476.28Z" style="fill:white;fill-rule:nonzero;"/>
            <path d="M649.278,446.692C639.334,444.382 633.523,443 631.846,442.547C630.169,442.094 629.363,441.726 629.429,441.444C629.513,441.082 634.123,436.488 643.26,427.663L657.026,414.439C654.78,413.875 651.413,413.071 646.924,412.028C642.435,410.985 639.068,410.182 636.823,409.618L639.783,396.875L660.074,401.589C673.522,404.713 680.217,406.396 680.161,406.638L677.439,409.315C675.81,410.846 672.933,413.594 668.808,417.558C664.684,421.522 660.91,425.165 657.486,428.485C654.062,431.806 652.346,433.487 652.337,433.527C652.318,433.607 655.63,434.419 662.273,435.963L672.298,438.292L669.268,451.336L649.278,446.692Z" style="fill:white;fill-rule:nonzero;"/>
            <path d="M682.792,389.509L641.132,388.882L641.502,364.332C641.749,347.966 641.955,339.784 642.12,339.787C642.285,339.789 643.508,340.965 645.787,343.314L649.206,346.9L648.773,375.603L675.554,376.007L675.859,355.797L659.802,355.555L660.004,342.164L683.499,342.518L682.792,389.509Z" style="fill:white;fill-rule:nonzero;"/>
            <path d="M681.857,323.432L641.005,331.618C641.005,331.617 631.894,286.144 631.894,286.144L632.562,286.011C633.008,285.921 634.35,286.622 636.588,288.113L640.078,290.385L645.426,317.073L654.727,315.209L648.649,284.874L655.944,283.412C656.618,286.776 657.647,291.808 659.031,298.507C660.416,305.206 661.445,310.238 662.119,313.601L671.785,311.665C671.233,308.698 670.366,304.266 669.184,298.37C668.003,292.473 667.136,288.041 666.584,285.074L668.88,281.706C670.404,279.419 671.429,278.223 671.955,278.117L672.746,277.959L681.857,323.431L681.857,323.432Z" style="fill:white;fill-rule:nonzero;"/>
            <path d="M648.076,270.326C638.703,274.374 633.207,276.713 631.589,277.344C629.971,277.976 629.104,278.159 628.99,277.893C628.842,277.552 629.823,271.117 631.932,258.591L635.152,239.776C633.011,240.656 629.825,242.009 625.594,243.836C621.363,245.664 618.177,247.017 616.035,247.897L610.848,235.887L629.973,227.628C642.647,222.154 649.033,219.531 649.132,219.759L648.531,223.53C648.131,225.729 647.448,229.648 646.484,235.287C645.52,240.926 644.647,246.098 643.865,250.803C643.083,255.508 642.7,257.88 642.717,257.918C642.75,257.993 645.896,256.679 652.158,253.975L661.606,249.895L666.916,262.189L648.076,270.326Z" style="fill:white;fill-rule:nonzero;"/>
            <path d="M135.489,344.628L146.814,344.565L146.834,348.24C145.137,348.8 143.765,349.339 142.718,349.857C141.671,350.375 140.874,350.917 140.327,351.483C139.78,352.048 139.396,352.707 139.175,353.458C138.955,354.209 138.848,355.197 138.854,356.422L138.915,367.41L159.315,367.296L159.272,359.572C159.266,358.472 159.08,357.61 158.714,356.987C158.348,356.364 157.739,355.849 156.887,355.441C156.034,355.033 154.72,354.647 152.943,354.282L152.923,350.757L168.748,350.669L168.767,354.194C167.07,354.578 165.791,354.985 164.93,355.415C164.07,355.845 163.461,356.354 163.101,356.944C162.742,357.533 162.566,358.403 162.572,359.553L162.615,367.278L177.315,367.196C178.815,367.188 180.014,367.094 180.913,366.914C181.812,366.734 182.523,366.443 183.046,366.04C183.569,365.637 183.959,365.097 184.218,364.421C184.477,363.744 184.716,362.905 184.936,361.904L186.773,361.894L186.865,378.544L185.028,378.554C184.619,377.006 184.17,375.971 183.679,375.449C183.189,374.927 182.493,374.587 181.592,374.429C180.692,374.272 179.316,374.198 177.466,374.208L145.029,374.388C143.304,374.398 142.048,374.467 141.262,374.597C140.475,374.726 139.863,374.936 139.427,375.226C138.992,375.516 138.644,375.899 138.384,376.375C138.124,376.852 137.835,377.666 137.516,378.818L135.679,378.828L135.489,344.628Z" style="fill:white;fill-rule:nonzero;"/>
            <path d="M174.891,329.319L173.259,343.727L168.446,343.182L170.078,328.774L174.891,329.319Z" style="fill:white;fill-rule:nonzero;"/>
            <path d="M170.632,304.735L170.009,307.67C168.691,307.859 167.616,308.184 166.783,308.647C165.95,309.109 165.309,309.697 164.859,310.411C164.41,311.125 164.066,312.042 163.828,313.163C163.482,314.793 163.588,316.173 164.147,317.304C164.706,318.434 165.648,319.14 166.972,319.421C167.91,319.62 168.725,319.59 169.419,319.333C170.112,319.075 170.811,318.595 171.513,317.892C172.216,317.19 173.224,315.902 174.537,314.03C175.875,312.141 177.041,310.712 178.035,309.741C179.029,308.77 180.094,308.069 181.229,307.639C182.363,307.209 183.624,307.141 185.01,307.435C186.62,307.777 187.916,308.339 188.9,309.123C189.884,309.907 190.616,310.872 191.097,312.017C191.578,313.163 191.826,314.456 191.839,315.896C191.853,317.337 191.687,318.872 191.341,320.503C190.978,322.215 190.498,323.849 189.902,325.404C189.305,326.96 188.641,328.459 187.909,329.901L181.52,328.546L182.156,325.55C184.147,325.397 185.681,324.871 186.756,323.97C187.831,323.07 188.569,321.672 188.971,319.776C189.127,319.043 189.203,318.308 189.2,317.573C189.196,316.837 189.074,316.156 188.834,315.53C188.594,314.904 188.203,314.364 187.661,313.908C187.119,313.452 186.389,313.127 185.472,312.932C184.433,312.712 183.544,312.736 182.805,313.005C182.067,313.274 181.336,313.78 180.615,314.521C179.893,315.262 178.844,316.616 177.469,318.581C176.301,320.271 175.231,321.599 174.26,322.564C173.288,323.53 172.235,324.227 171.1,324.657C169.965,325.087 168.715,325.157 167.35,324.868C165.679,324.513 164.323,323.751 163.282,322.583C162.242,321.414 161.577,319.905 161.288,318.055C160.999,316.204 161.099,314.128 161.588,311.825C161.873,310.48 162.215,309.195 162.614,307.97C163.012,306.744 163.606,305.225 164.396,303.412L170.632,304.735Z" style="fill:white;fill-rule:nonzero;"/>
            <path d="M194.662,301.679L200.893,303.837C202.172,304.281 203.142,304.567 203.803,304.697C204.464,304.826 205.015,304.841 205.458,304.741C205.9,304.641 206.313,304.42 206.696,304.079C207.079,303.737 207.532,303.128 208.057,302.251L209.503,302.753L205.33,314.8L203.883,314.299C203.931,313.522 203.929,312.876 203.876,312.362C203.823,311.847 203.635,311.402 203.313,311.026C202.992,310.65 202.5,310.303 201.838,309.986C201.177,309.668 200.275,309.312 199.133,308.916L173.798,300.139C172.381,299.648 171.365,299.318 170.751,299.149C170.137,298.98 169.613,298.887 169.178,298.869C168.743,298.85 168.359,298.91 168.024,299.048C167.69,299.186 167.368,299.416 167.058,299.738C166.748,300.061 166.35,300.634 165.866,301.459L164.301,300.916L166.44,293.885L167.064,292.084L171.744,294.135L172.015,293.733C171.198,292.083 170.632,290.807 170.316,289.904C170.001,289.001 169.787,288.105 169.676,287.218C169.564,286.33 169.551,285.51 169.635,284.757C169.72,284.003 169.899,283.233 170.172,282.445C171.297,279.197 173.377,277.123 176.412,276.223C179.446,275.324 183.306,275.685 187.991,277.308C191.24,278.434 193.8,279.872 195.674,281.624C197.548,283.375 198.715,285.384 199.176,287.649C199.637,289.914 199.417,292.346 198.517,294.944C198.012,296.401 197.432,297.678 196.777,298.773C196.121,299.869 195.417,300.838 194.662,301.679ZM184.918,298.303C186.808,298.958 188.305,299.344 189.411,299.463C190.516,299.581 191.493,299.451 192.341,299.072C193.189,298.693 193.911,298.15 194.509,297.442C195.107,296.734 195.638,295.711 196.102,294.373C196.927,291.991 196.559,289.857 194.996,287.97C193.434,286.084 190.724,284.473 186.865,283.136C179.149,280.462 174.51,281.38 172.948,285.888C172.566,286.99 172.409,287.999 172.477,288.916C172.546,289.833 172.827,290.818 173.322,291.871C173.817,292.924 174.367,293.738 174.973,294.312C175.579,294.886 176.296,295.316 177.123,295.602L184.918,298.303Z" style="fill:white;fill-rule:nonzero;"/>
            <path d="M208.491,259.05C209.132,260.871 209.553,262.457 209.754,263.81C209.956,265.162 209.954,266.534 209.75,267.925C209.546,269.317 209.081,270.728 208.354,272.158C206.411,275.985 203.798,278.291 200.513,279.077C197.229,279.863 193.348,279.119 188.871,276.846C186.103,275.441 183.913,273.704 182.3,271.635C180.687,269.566 179.771,267.319 179.553,264.896C179.335,262.472 179.834,260.062 181.051,257.665C182.004,255.789 183.112,254.343 184.376,253.325C185.64,252.308 186.988,251.667 188.42,251.401C189.852,251.135 191.463,251.182 193.255,251.542C195.046,251.903 197.219,252.696 199.774,253.923L190.861,271.478L191.362,271.733C193.554,272.845 195.523,273.535 197.268,273.802C199.014,274.069 200.594,273.855 202.01,273.161C203.426,272.466 204.591,271.218 205.506,269.416C206.28,267.892 206.692,266.379 206.743,264.874C206.794,263.37 206.485,261.688 205.817,259.83L208.491,259.05ZM194.801,257.988C192.738,257.08 190.972,256.499 189.501,256.243C188.031,255.987 186.758,256.077 185.684,256.513C184.61,256.949 183.752,257.799 183.111,259.062C182.139,260.975 182.13,262.892 183.083,264.813C184.035,266.733 185.88,268.517 188.619,270.164L194.801,257.988Z" style="fill:white;fill-rule:nonzero;"/>
            <path d="M204.915,241.532L202.882,235.29C202.657,234.614 202.399,234.016 202.108,233.496C201.816,232.975 201.436,232.559 200.969,232.247C200.57,231.981 200.143,231.908 199.686,232.029C199.229,232.15 198.732,232.482 198.195,233.025L196.921,232.175L202.595,223.676L203.869,224.526C203.62,225.312 203.544,226.232 203.642,227.287C203.739,228.341 204.073,229.773 204.644,231.582L207.653,241.369L219.589,240.771C221.299,240.685 222.683,240.507 223.741,240.236C224.798,239.965 225.682,239.579 226.394,239.077L227.667,239.927L220.691,250.375L219.418,249.524C220.205,247.971 220.148,246.893 219.247,246.291C218.883,246.049 218.496,245.878 218.086,245.779C217.676,245.681 217.144,245.652 216.491,245.692L208.725,245.955L211.251,253.428C211.435,253.977 211.633,254.441 211.843,254.819C212.054,255.198 212.359,255.52 212.757,255.786C213.225,256.099 213.718,256.196 214.235,256.078C214.752,255.96 215.277,255.577 215.809,254.93L217.082,255.781L211.287,264.461L210.013,263.611C210.187,262.9 210.271,262.211 210.266,261.544C210.26,260.876 210.17,260.139 209.994,259.333C209.819,258.526 209.515,257.415 209.082,255.999L205.986,246.117L194.701,246.586C193.153,246.654 191.994,246.757 191.225,246.895C190.457,247.033 189.824,247.212 189.327,247.431C188.83,247.651 188.402,247.916 188.044,248.228L186.77,247.378L193.572,237.19L194.846,238.04C194.14,239.548 194.22,240.591 195.086,241.169C195.485,241.435 195.944,241.61 196.464,241.694C196.984,241.778 197.614,241.792 198.353,241.735L204.915,241.531L204.915,241.532Z" style="fill:white;fill-rule:nonzero;"/>
            <path d="M237.319,221.022C237.514,222.942 237.55,224.584 237.428,225.945C237.305,227.307 236.981,228.64 236.456,229.945C235.93,231.249 235.146,232.511 234.104,233.731C231.315,236.993 228.233,238.62 224.855,238.611C221.478,238.602 217.881,236.967 214.065,233.705C211.705,231.688 209.984,229.485 208.903,227.094C207.822,224.704 207.46,222.305 207.818,219.898C208.176,217.491 209.229,215.266 210.975,213.223C212.342,211.623 213.759,210.478 215.227,209.787C216.695,209.095 218.156,208.789 219.61,208.867C221.064,208.945 222.62,209.37 224.276,210.142C225.932,210.913 227.858,212.196 230.052,213.989L217.261,228.955L217.689,229.321C219.557,230.918 221.309,232.051 222.942,232.721C224.576,233.391 226.162,233.555 227.702,233.213C229.241,232.87 230.667,231.931 231.98,230.395C233.09,229.096 233.847,227.722 234.251,226.272C234.654,224.822 234.749,223.115 234.536,221.151L237.319,221.022ZM224.263,216.77C222.472,215.403 220.891,214.422 219.522,213.828C218.153,213.233 216.895,213.021 215.749,213.192C214.602,213.364 213.569,213.988 212.648,215.064C211.254,216.696 210.794,218.557 211.268,220.647C211.742,222.738 213.117,224.906 215.391,227.151L224.263,216.77Z" style="fill:white;fill-rule:nonzero;"/>
            <path d="M220.816,205.17C221.458,204.333 221.87,203.541 222.053,202.795C222.236,202.048 222.234,201.311 222.048,200.584C221.861,199.857 221.504,199.062 220.975,198.2C220.446,197.338 219.613,196.14 218.477,194.606L221.7,191.556L227.005,197.162L234.336,190.224L236.506,192.516L229.175,199.454L238.733,209.554C240.122,211.022 241.289,212.134 242.234,212.889C243.178,213.645 244.049,214.111 244.848,214.288C245.646,214.464 246.357,214.458 246.981,214.269C247.606,214.08 248.251,213.67 248.916,213.04C249.522,212.468 249.971,211.806 250.264,211.055C250.558,210.304 250.739,209.451 250.81,208.495L252.991,208.754C252.905,210.814 252.603,212.534 252.087,213.912C251.57,215.291 250.797,216.467 249.768,217.441C247.816,219.288 245.815,220.084 243.767,219.829C241.718,219.573 239.526,218.212 237.192,215.746L225.271,203.149L221.912,206.328L220.816,205.17Z" style="fill:white;fill-rule:nonzero;"/>
            <path d="M273.831,191.791C274.676,191.218 275.322,190.704 275.769,190.25C276.216,189.796 276.513,189.343 276.66,188.891C276.806,188.439 276.839,187.958 276.757,187.447C276.675,186.937 276.497,186.182 276.223,185.185L278.422,183.694L283.103,191.545L261.816,205.978L260.974,204.736C260.488,202.423 260.231,199.891 260.204,197.141C260.177,194.391 260.447,190.948 261.016,186.812C261.52,183.248 261.825,180.6 261.933,178.865C262.057,176.969 262.049,175.408 261.91,174.181C261.77,172.954 261.532,171.869 261.195,170.927C260.858,169.985 260.415,169.109 259.866,168.299C258.989,167.005 258.007,166.003 256.921,165.292C255.835,164.581 254.672,164.231 253.433,164.24C252.194,164.25 250.927,164.693 249.634,165.57C246.41,167.756 245.453,171.023 246.764,175.37L243.634,177.492L240.267,172.525C241.687,170.128 243.158,168.092 244.679,166.419C246.2,164.746 247.685,163.419 249.133,162.437C252.34,160.262 255.239,159.322 257.83,159.617C260.421,159.91 262.623,161.394 264.435,164.067C265.055,164.981 265.534,165.883 265.873,166.773C266.213,167.663 266.442,168.614 266.563,169.628C266.684,170.641 266.709,171.801 266.638,173.107C266.567,174.413 266.436,175.78 266.245,177.205C266.054,178.631 265.686,181.039 265.14,184.43C264.214,190.117 263.86,194.774 264.079,198.401L273.831,191.79L273.831,191.791Z" style="fill:white;fill-rule:nonzero;"/>
            <path d="M296.675,185.276C292.629,187.246 288.843,187.119 285.316,184.897C281.79,182.675 278.449,178.323 275.294,171.842C273.616,168.396 272.47,165.269 271.857,162.463C271.244,159.656 271.086,157.167 271.384,154.994C271.682,152.822 272.407,150.968 273.56,149.434C274.713,147.899 276.198,146.69 278.015,145.805C282.117,143.808 285.941,143.904 289.486,146.094C293.032,148.284 296.364,152.582 299.483,158.988C302.711,165.619 304.08,171.157 303.591,175.601C303.101,180.044 300.796,183.27 296.675,185.276ZM280.362,168.332C283.335,174.438 286.084,178.644 288.608,180.949C291.132,183.253 293.583,183.827 295.962,182.669C298.228,181.565 299.255,179.403 299.042,176.181C298.83,172.96 297.351,168.53 294.606,162.892C292.508,158.584 290.529,155.232 288.667,152.836C286.806,150.441 285.091,148.906 283.524,148.233C281.956,147.559 280.461,147.569 279.037,148.262C277.745,148.891 276.85,149.802 276.353,150.994C275.856,152.186 275.691,153.633 275.86,155.335C276.028,157.037 276.504,158.978 277.287,161.157C278.07,163.337 279.095,165.728 280.362,168.332Z" style="fill:white;fill-rule:nonzero;"/>
            <path d="M324.678,168.386C325.648,168.071 326.412,167.757 326.968,167.445C327.523,167.133 327.934,166.78 328.201,166.387C328.467,165.994 328.632,165.54 328.695,165.027C328.759,164.514 328.797,163.74 328.812,162.706L331.338,161.885L333.653,170.727L309.193,178.675L308.73,177.249C308.906,174.892 309.363,172.388 310.101,169.739C310.839,167.089 312.056,163.857 313.751,160.042C315.226,156.759 316.256,154.3 316.841,152.664C317.487,150.876 317.913,149.374 318.12,148.157C318.327,146.94 318.4,145.832 318.338,144.833C318.277,143.835 318.094,142.87 317.792,141.938C317.309,140.452 316.645,139.217 315.799,138.232C314.953,137.248 313.934,136.588 312.74,136.252C311.547,135.917 310.208,135.991 308.722,136.474C305.016,137.678 303.19,140.55 303.241,145.09L299.645,146.258L297.79,140.552C299.821,138.644 301.799,137.097 303.725,135.913C305.651,134.728 307.447,133.865 309.111,133.325C312.796,132.127 315.842,132.03 318.249,133.033C320.656,134.036 322.359,136.073 323.357,139.144C323.698,140.194 323.908,141.194 323.987,142.143C324.065,143.092 324.021,144.07 323.856,145.076C323.69,146.083 323.392,147.204 322.961,148.44C322.53,149.675 322.024,150.951 321.444,152.267C320.864,153.584 319.841,155.795 318.375,158.9C315.905,164.106 314.271,168.481 313.473,172.026L324.678,168.385L324.678,168.386Z" style="fill:white;fill-rule:nonzero;"/>
            <path d="M352.236,125.313L352.493,126.823C349.33,127.36 346.642,128.514 344.428,130.285C342.214,132.056 340.524,134.393 339.359,137.296C338.193,140.199 337.589,143.514 337.546,147.24L337.875,147.311C339.391,145.786 340.937,144.593 342.513,143.734C344.089,142.874 345.853,142.279 347.804,141.947C350.125,141.553 352.188,141.725 353.994,142.464C355.799,143.204 357.269,144.422 358.403,146.121C359.537,147.82 360.313,149.901 360.732,152.366C361.186,155.036 361.073,157.48 360.393,159.698C359.714,161.916 358.4,163.793 356.453,165.329C354.505,166.864 351.96,167.899 348.818,168.433C344.32,169.197 340.688,168.377 337.924,165.973C335.159,163.569 333.314,159.645 332.389,154.203C331.768,150.547 331.762,147.029 332.371,143.65C332.981,140.271 334.141,137.216 335.854,134.484C337.566,131.752 339.703,129.466 342.264,127.626C344.825,125.785 347.632,124.521 350.685,123.833L352.236,125.313ZM346.228,145.543C345.222,145.714 344.27,145.992 343.374,146.377C342.478,146.761 341.656,147.239 340.908,147.81C340.159,148.381 339.451,149.062 338.782,149.851C338.574,150.119 338.429,150.387 338.348,150.654C338.209,151.079 338.157,151.585 338.193,152.17C338.229,152.756 338.363,153.726 338.593,155.082C339.26,159.005 340.425,161.882 342.088,163.712C343.752,165.543 345.918,166.231 348.589,165.777C350.129,165.516 351.378,165.029 352.334,164.317C353.291,163.605 354.013,162.727 354.502,161.682C354.99,160.638 355.265,159.46 355.328,158.15C355.391,156.84 355.296,155.445 355.045,153.966C354.528,150.927 353.5,148.666 351.959,147.184C350.418,145.703 348.508,145.156 346.228,145.543Z" style="fill:white;fill-rule:nonzero;"/>
            <path d="M272.26,360.181L253.291,346.472L207.543,357.201L260,314.373L301.106,329.398C290.328,337.159 280.647,347.134 272.88,359.55C272.663,359.749 272.456,359.959 272.26,360.181Z" style="fill:rgb(208,0,0);"/>
            <path d="M373.913,303.81C374.35,303.761 374.786,303.712 375.223,303.666C392.534,301.809 409.232,302.022 423.392,302.985C419.172,316.535 413.336,332.182 405.349,347.652C405.148,348.042 404.945,348.432 404.741,348.822C407.593,343.015 405.526,330.186 398.785,320.449C391.707,310.227 379.732,303.239 373.913,303.81Z" style="fill:rgb(208,0,0);"/>
            <path d="M315.832,422.797L321.809,445.627L295.272,484.406L354.163,450.972L355.009,407.214" style="fill:rgb(208,0,0);"/>
            <path d="M284.053,444.626C275.084,450.768 258.108,441.599 246.166,424.163C234.224,406.726 231.809,387.583 240.778,381.441C241.951,380.895 243.119,380.377 244.285,379.89C253.703,377.591 268.139,386.536 278.664,401.904C289.2,417.288 292.32,434 286.75,441.94C285.879,442.841 284.98,443.735 284.053,444.626Z" style="fill:white;"/>
            <path d="M269.941,374.803C268.718,367.392 269.936,361.47 273.893,358.76C281.916,353.265 298.181,363.041 310.191,380.577C322.201,398.113 325.438,416.811 317.415,422.306C313.471,425.008 307.534,424.018 301.09,420.229C303.083,414.52 304.237,408.109 304.449,400.629C304.899,398.006 303.039,392.933 299.562,387.856C296.278,383.06 292.474,379.612 289.864,378.8C282.7,376.253 276.15,374.997 269.941,374.803Z" style="fill:rgb(255,192,0);"/>
            <path d="M269.941,374.803C268.718,367.392 269.936,361.47 273.893,358.76C281.916,353.265 298.181,363.041 310.191,380.577C322.201,398.113 325.438,416.811 317.415,422.306C313.471,425.008 307.534,424.018 301.09,420.229C303.083,414.52 304.237,408.109 304.449,400.629C304.899,398.006 303.039,392.933 299.562,387.856C296.278,383.06 292.474,379.612 289.864,378.8C282.7,376.253 276.15,374.997 269.941,374.803Z" style="fill:none;stroke:rgb(242,203,0);stroke-width:0.24px;"/>
            <path d="M373.913,303.81C379.732,303.239 391.707,310.227 398.785,320.449C405.526,330.186 407.593,343.015 404.741,348.822C393.06,371.127 376.873,392.947 354.571,407.461C343.382,414.742 330.654,420.184 316.183,422.926C316.548,422.75 316.898,422.547 317.234,422.317C325.192,416.867 321.913,398.223 309.917,380.708C297.921,363.193 281.722,353.398 273.765,358.848C273.453,359.062 273.158,359.296 272.88,359.549C280.648,347.133 290.328,337.159 301.106,329.398C322.698,313.848 348.894,306.64 373.913,303.81ZM367.519,341.048C359.384,329.17 344.802,324.989 334.978,331.718C325.153,338.447 323.781,353.554 331.916,365.432C340.052,377.31 354.633,381.491 364.458,374.762C374.283,368.033 375.655,352.926 367.519,341.048Z" style="fill:white;"/>
            <path d="M347.119,370.818C343.052,369.407 339.187,366.518 336.359,362.389C333.668,358.46 332.363,354.06 332.377,349.935" style="fill:none;stroke:rgb(255,192,0);stroke-width:3.84px;stroke-linecap:round;"/>
            <path d="M338.656,337.089C346.029,332.04 356.971,335.177 363.077,344.091" style="fill:none;stroke:white;stroke-width:3.84px;stroke-linecap:round;"/>
            <path d="M217.074,414.018C220.473,395.844 237.961,383.866 256.135,387.265C274.297,390.661 286.285,408.164 282.888,426.326C279.489,444.5 262.001,456.478 243.827,453.079C243.827,453.079 185.317,498.545 259.632,581.372C108.481,493.761 217.074,414.018 217.074,414.018Z" style="fill:rgb(208,0,0);"/>
            <path d="M236.075,409.998C238.408,397.521 250.415,389.298 262.892,391.632C275.36,393.964 283.59,405.98 281.258,418.448C278.925,430.925 266.919,439.148 254.442,436.815C220.051,444.865 202.235,480.539 199.773,505.922C181.694,455.162 212.399,427.153 236.075,409.998Z" style="fill:rgb(255,192,0);"/>
            <path d="M258.653,405.163C259.728,399.419 265.256,395.633 271,396.708C276.74,397.781 280.529,403.313 279.456,409.053C278.381,414.797 272.854,418.583 267.11,417.509L216.263,443.674L258.654,405.163L258.653,405.163Z" style="fill:white;"/>
            <path d="M343.36,597.398C338.282,596.648 332.479,596.593 329.568,597.553C326.657,598.513 327.321,600.264 330.206,601.737C322.243,599.513 318.724,596.736 322.354,595.539C325.984,594.342 335.396,595.175 343.36,597.398Z" style="fill:white;"/>
            <path d="M532.558,442.735C525.494,442.189 515.938,447.996 510.66,456.63C505.382,465.264 506.087,473.936 511.662,476.919C503.623,474.674 501.779,465.194 507.545,455.76C513.312,446.327 524.52,440.491 532.558,442.735Z" style="fill:white;"/>
            <path d="M542.519,518.934C533.612,517.923 517.414,525.296 505.418,536.256C493.422,547.216 489.677,558.066 496.109,561.338C486.979,558.789 489.964,547.219 502.771,535.517C515.578,523.815 533.389,516.385 542.519,518.934Z" style="fill:white;"/>
            <path d="M455.072,548.708C445.946,547.142 431.423,550.996 421.906,557.852C412.388,564.708 411.087,572.253 418.249,575.234C408.554,572.527 408.934,564.387 419.095,557.067C429.257,549.747 445.377,546.002 455.072,548.708Z" style="fill:white;"/>
            <path d="M622.974,334.744C617.575,335.579 611.802,352.846 609.944,375.037C608.087,397.228 610.77,416.856 615.786,420.6C609.587,418.869 606.164,398.228 608.147,374.535C610.131,350.843 616.774,333.013 622.974,334.744Z" style="fill:white;"/>
            <path d="M511.394,172.283C502.862,172.763 501.584,183.923 509.561,199.135C517.539,214.348 532.271,228.842 543.459,233.429C530.337,230.696 512.5,214.778 503.652,197.904C494.803,181.031 498.273,169.55 511.394,172.283Z" style="fill:white;"/>
            <path d="M564.015,287.722C558.39,287.703 554.342,294.429 555.075,303.95C555.807,313.472 561.09,322.803 566.959,325.992C559.311,323.857 552.443,313.55 551.631,302.989C550.818,292.428 556.368,285.587 564.015,287.722Z" style="fill:white;"/>
            <path d="M418.592,170.602L424.236,209.402L463.036,215.045L424.236,220.689L418.592,259.489L412.949,220.689L374.149,215.045L412.949,209.402L418.592,170.602Z" style="fill:white;"/>
            <path d="M418.592,170.602L424.236,209.402L463.036,215.045L424.236,220.689L418.592,259.489L412.949,220.689L374.149,215.045L412.949,209.402L418.592,170.602Z" style="fill:none;stroke:white;stroke-width:3.42px;stroke-linecap:round;"/>
            <path d="M442.073,395.779L445.41,418.72L468.35,422.056L445.41,425.393L442.073,448.334L438.736,425.393L415.796,422.056L438.736,418.72L442.073,395.779Z" style="fill:white;"/>
            <path d="M442.073,395.779L445.41,418.72L468.35,422.056L445.41,425.393L442.073,448.334L438.736,425.393L415.796,422.056L438.736,418.72L442.073,395.779Z" style="fill:none;stroke:white;stroke-width:3.42px;stroke-linecap:round;"/>
            <path d="M301.079,254.648L303.046,268.171L316.568,270.138L303.046,272.105L301.079,285.627L299.112,272.105L285.589,270.138L299.112,268.171L301.079,254.648Z" style="fill:white;"/>
            <path d="M301.079,254.648L303.046,268.171L316.568,270.138L303.046,272.105L301.079,285.627L299.112,272.105L285.589,270.138L299.112,268.171L301.079,254.648Z" style="fill:none;stroke:white;stroke-width:3.42px;stroke-linecap:round;"/>
        </g>
    </g>
</svg>
