<?xml version="1.0" encoding="UTF-8" standalone="no"?>
<!-- Created with Inkscape (http://www.inkscape.org/) -->

<svg
   width="143.28375mm"
   height="28.694393mm"
   viewBox="0 0 143.28375 28.694391"
   version="1.1"
   id="svg1"
   xml:space="preserve"
   inkscape:version="1.4 (e7c3feb100, 2024-10-09)"
   sodipodi:docname="planka.svg"
   inkscape:export-filename="FINALLLLLLLLLlogga2025.svg"
   inkscape:export-xdpi="96"
   inkscape:export-ydpi="96"
   xmlns:inkscape="http://www.inkscape.org/namespaces/inkscape"
   xmlns:sodipodi="http://sodipodi.sourceforge.net/DTD/sodipodi-0.dtd"
   xmlns="http://www.w3.org/2000/svg"
   xmlns:svg="http://www.w3.org/2000/svg"><sodipodi:namedview
     id="namedview1"
     pagecolor="#333333"
     bordercolor="#000000"
     borderopacity="0.25"
     inkscape:showpageshadow="true"
     inkscape:pageopacity="0.0"
     inkscape:pagecheckerboard="true"
     inkscape:deskcolor="#d1d1d1"
     inkscape:document-units="mm"
     showguides="false"
     inkscape:zoom="1.5492714"
     inkscape:cx="270.77245"
     inkscape:cy="233.33549"
     inkscape:window-width="1556"
     inkscape:window-height="924"
     inkscape:window-x="0"
     inkscape:window-y="0"
     inkscape:window-maximized="1"
     inkscape:current-layer="svg1"
     showgrid="false"
     showborder="true"
     shape-rendering="auto"
     borderlayer="true"><sodipodi:guide
       position="205.65776,71.362962"
       orientation="-1,0"
       id="guide33"
       inkscape:locked="false"
       inkscape:label=""
       inkscape:color="rgb(0,134,229)" /></sodipodi:namedview><defs
     id="defs1"><clipPath
       clipPathUnits="userSpaceOnUse"
       id="clipPath22"><g
         inkscape:label="Clip"
         id="use22"><path
           id="path22"
           style="fill:#e2e9f2;stroke-width:0.217487"
           d="m 136.47319,83.269732 a 4.7794175,4.7794175 0 0 0 -4.77761,4.77986 4.7794175,4.7794175 0 0 0 4.77761,4.779861 4.7794175,4.7794175 0 0 0 4.77987,-4.779861 4.7794175,4.7794175 0 0 0 -4.77987,-4.77986 z" /></g></clipPath><mask
       maskUnits="userSpaceOnUse"
       id="mask23"><ellipse
         style="fill:#e2e9f2;fill-opacity:1;stroke:none;stroke-width:0.264999;stroke-opacity:1"
         id="ellipse23"
         cx="137.39099"
         cy="87.985931"
         rx="4.0195012"
         ry="3.9878516" /></mask><clipPath
       clipPathUnits="userSpaceOnUse"
       id="clipPath4950-4-3"><path
         inkscape:connector-curvature="0"
         id="path4952-3-2"
         d="m -325.3865,119.29363 30.59903,1.21138 c 0,0 -0.74489,8.61501 -1.59408,12.8452 -0.75152,3.74372 -3.08587,11.03175 -3.08587,11.03175 l -25.71482,3.15064 z"
         style="fill:none;stroke:#000000;stroke-width:0.264583px;stroke-linecap:butt;stroke-linejoin:miter;stroke-opacity:1"
         sodipodi:nodetypes="ccaccc" /></clipPath></defs><rect
     style="display:none;fill:#784941;fill-opacity:1;stroke-width:0.890313;stroke-linejoin:round"
     id="rect1"
     width="143.1855"
     height="34.102634"
     x="0.020537548"
     y="0" /><path
     id="path10394"
     style="display:inline;fill:#784941;fill-opacity:1;fill-rule:evenodd;stroke:none;stroke-width:1;stroke-dasharray:none;stroke-opacity:1"
     d="M 142.41043,0 1.0366292,0.41444499 0,5.8042969 4.5604451,6.2187419 0,7.6698161 0.20722249,11.193632 1.9538859,11.278902 0.36298163,11.717171 0.04392497,16.671354 2.4603072,18.624164 0.0666626,18.923931 0.25114746,22.06069 8.7503703,22.475652 1.2877767,23.926209 0.87333171,28.694394 143.07602,25.792245 l 0.20774,-1.451074 -6.6337,-0.829407 6.6337,-0.414445 -0.41496,-2.072742 -8.08426,-1.036629 7.32424,-1.398625 v -5.17e-4 h -0.005 l 0.40135,-5.963682 0.0169,-0.402406 0.15296,-2.145606 0.0398,-0.0186 -7.97446,-0.9375977 8.29149,-0.8294067 z"
     sodipodi:nodetypes="ccccccccccccccccccccccccccccccc" /></svg>
