<?xml version="1.0" encoding="UTF-8" standalone="no"?>
<!-- Created with Inkscape (http://www.inkscape.org/) -->

<svg
   width="143.23984mm"
   height="34.080978mm"
   viewBox="0 0 143.23984 34.080976"
   version="1.1"
   id="svg1"
   xml:space="preserve"
   inkscape:version="1.4 (e7c3feb100, 2024-10-09)"
   sodipodi:docname="plankor.svg"
   inkscape:export-filename="FINALLLLLLLLLlogga2025.svg"
   inkscape:export-xdpi="96"
   inkscape:export-ydpi="96"
   xmlns:inkscape="http://www.inkscape.org/namespaces/inkscape"
   xmlns:sodipodi="http://sodipodi.sourceforge.net/DTD/sodipodi-0.dtd"
   xmlns="http://www.w3.org/2000/svg"
   xmlns:svg="http://www.w3.org/2000/svg"><sodipodi:namedview
     id="namedview1"
     pagecolor="#333333"
     bordercolor="#000000"
     borderopacity="0.25"
     inkscape:showpageshadow="true"
     inkscape:pageopacity="0.0"
     inkscape:pagecheckerboard="true"
     inkscape:deskcolor="#d1d1d1"
     inkscape:document-units="mm"
     showguides="false"
     inkscape:zoom="0.59884117"
     inkscape:cx="484.26864"
     inkscape:cy="75.980079"
     inkscape:window-width="1556"
     inkscape:window-height="924"
     inkscape:window-x="0"
     inkscape:window-y="0"
     inkscape:window-maximized="1"
     inkscape:current-layer="svg1"
     showgrid="false"
     showborder="true"
     shape-rendering="auto"
     borderlayer="true"><sodipodi:guide
       position="205.65776,71.362962"
       orientation="-1,0"
       id="guide33"
       inkscape:locked="false"
       inkscape:label=""
       inkscape:color="rgb(0,134,229)" /></sodipodi:namedview><defs
     id="defs1"><clipPath
       clipPathUnits="userSpaceOnUse"
       id="clipPath22"><g
         inkscape:label="Clip"
         id="use22"><path
           id="path22"
           style="fill:#e2e9f2;stroke-width:0.217487"
           d="m 136.47319,83.269732 a 4.7794175,4.7794175 0 0 0 -4.77761,4.77986 4.7794175,4.7794175 0 0 0 4.77761,4.779861 4.7794175,4.7794175 0 0 0 4.77987,-4.779861 4.7794175,4.7794175 0 0 0 -4.77987,-4.77986 z" /></g></clipPath><mask
       maskUnits="userSpaceOnUse"
       id="mask23"><ellipse
         style="fill:#e2e9f2;fill-opacity:1;stroke:none;stroke-width:0.264999;stroke-opacity:1"
         id="ellipse23"
         cx="137.39099"
         cy="87.985931"
         rx="4.0195012"
         ry="3.9878516" /></mask><clipPath
       clipPathUnits="userSpaceOnUse"
       id="clipPath4950-4-3"><path
         inkscape:connector-curvature="0"
         id="path4952-3-2"
         d="m -325.3865,119.29363 30.59903,1.21138 c 0,0 -0.74489,8.61501 -1.59408,12.8452 -0.75152,3.74372 -3.08587,11.03175 -3.08587,11.03175 l -25.71482,3.15064 z"
         style="fill:none;stroke:#000000;stroke-width:0.264583px;stroke-linecap:butt;stroke-linejoin:miter;stroke-opacity:1"
         sodipodi:nodetypes="ccaccc" /></clipPath></defs><path
     id="path10394"
     style="display:inline;fill:#784941;fill-opacity:1;fill-rule:evenodd;stroke:none;stroke-width:1;stroke-dasharray:none;stroke-opacity:1"
     d="M 143.0321,16.37626 1.451075,19.27798 1.03663,25.91159 l 6.840409,0.20722 -5.80378,1.86552 2.072741,6.09665 137.43503,-0.97881 -0.20723,-3.2518 -3.10937,-2.4877 4.97541,-1.45108 z m -38.77851,3.4649 c 1.64637,2e-4 3.36595,0.12529 5.0493,0.45165 l -12.815156,0.61448 c 0,0 2.38771,-1.0668 7.765856,-1.06613 z m 38.68911,3.5941 c -0.36644,0.87947 -28.50937,0.43976 -28.50937,0.43976 z M 18.628493,23.67555 c 3.143626,9.8e-4 6.135418,0.16706 8.187817,0.64802 L 4.061251,24.47033 c 0,0 7.651268,-0.79695 14.567242,-0.79478 z m 113.126777,5.86631 c -8.20839,1.75894 -25.21138,1.09968 -25.21138,1.09968 z M 142.41043,0 1.03663,0.41444 0,5.80429 4.560445,6.21874 0,7.66981 l 0.207223,3.52382 8.499223,0.41496 -7.462594,1.45056 -0.414445,4.76818 142.202693,-2.90215 0.20774,-1.45107 -6.6337,-0.82941 6.6337,-0.41444 -0.41496,-2.07275 -8.08426,-1.03662 8.29148,-0.82941 z M 75.549396,2.31199 c 7.18413,-0.009 15.633578,0.12449 17.317808,0.53039 0,0 -53.019376,1.10563 -55.921469,0.97574 0,0 22.798575,-1.48694 38.603661,-1.50613 z m 49.890184,3.26596 c 4.16251,0.002 9.06788,-0.15913 14.11159,-0.6772 L 113.80664,4.68031 c 0,0 4.78381,0.45319 11.63294,0.89764 z m -98.659302,8.42791 c 0.258657,-1.2e-4 0.517409,5.8e-4 0.77618,0.003 3.622792,0.0281 7.22386,0.26743 9.917224,0.91674 L 8.209879,14.55789 c 0,0 10.917264,-0.49484 17.795253,-0.54852 0.257923,-0.002 0.516489,-0.003 0.775146,-0.003 z"
     sodipodi:nodetypes="cccccccccccsccscccsccsccccccccccccccccccccccccccccccccscc" /></svg>
